<?xml version="1.0" encoding="UTF-8" standalone="no"?>
<!-- Created with Inkscape (http://www.inkscape.org/) -->

<svg
   xmlns:dc="http://purl.org/dc/elements/1.1/"
   xmlns:cc="http://creativecommons.org/ns#"
   xmlns:rdf="http://www.w3.org/1999/02/22-rdf-syntax-ns#"
   xmlns:svg="http://www.w3.org/2000/svg"
   xmlns="http://www.w3.org/2000/svg"
   xmlns:sodipodi="http://sodipodi.sourceforge.net/DTD/sodipodi-0.dtd"
   xmlns:inkscape="http://www.inkscape.org/namespaces/inkscape"
   width="4.9231033mm"
   height="6.1538792mm"
   viewBox="0 0 17.444067 21.805084"
   id="svg9417"
   version="1.1"
   inkscape:version="0.91 r13725"
   sodipodi:docname="Lock.svg">
  <defs
     id="defs9419" />
  <sodipodi:namedview
     id="base"
     pagecolor="#ffffff"
     bordercolor="#666666"
     borderopacity="1.0"
     inkscape:pageopacity="0.0"
     inkscape:pageshadow="2"
     inkscape:zoom="22.4"
     inkscape:cx="6.1635989"
     inkscape:cy="9.8298266"
     inkscape:document-units="px"
     inkscape:current-layer="g9400"
     showgrid="false"
     fit-margin-top="0"
     fit-margin-left="0"
     fit-margin-right="0"
     fit-margin-bottom="0"
     inkscape:window-width="1920"
     inkscape:window-height="986"
     inkscape:window-x="0"
     inkscape:window-y="27"
     inkscape:window-maximized="1" />
  <metadata
     id="metadata9422">
    <rdf:RDF>
      <cc:Work
         rdf:about="">
        <dc:format>image/svg+xml</dc:format>
        <dc:type
           rdf:resource="http://purl.org/dc/dcmitype/StillImage" />
        <dc:title></dc:title>
      </cc:Work>
    </rdf:RDF>
  </metadata>
  <g
     inkscape:groupmode="layer"
     id="layer2"
     inkscape:label="background"
     style="display:inline">
    <g
       id="g9442"
       transform="matrix(0.87220338,0,0,0.87220338,-21.95946,-24.42169)">
      <rect
         id="rect9444"
         height="16"
         width="20"
         style="fill:#ffffff;fill-opacity:1"
         y="37"
         x="25.177" />
      <path
         inkscape:connector-curvature="0"
         id="path9448"
         d="m 42.177,37 0,-2 c 0,-3.86 -3.14,-7 -7,-7 -3.86,0 -7,3.14 -7,7 l 0,2 c 0,0 8.620315,0 14,0 z"
         style="fill:#ffffff;fill-opacity:1"
         sodipodi:nodetypes="cssscc" />
    </g>
  </g>
  <g
     inkscape:label="Lock"
     inkscape:groupmode="layer"
     id="layer1"
     transform="translate(145.8649,-610.03109)"
     style="display:inline">
    <g
       transform="matrix(0.87220338,0,0,0.87220338,-167.82436,585.6094)"
       id="g9400">
      <rect
         x="25.177"
         y="37"
         style="fill:#241c1c"
         width="20"
         height="16"
         id="rect6511" />
      <path
         style="fill:#ffffff"
         d="m 38.177,44 c 0,-1.657 -1.343,-3 -3,-3 -1.657,0 -3,1.343 -3,3 0,1.317 0.854,2.424 2.035,2.827 -0.011,0.058 -0.035,0.112 -0.035,0.173 l 0,2 c 0,0.552 0.448,1 1,1 0.552,0 1,-0.448 1,-1 l 0,-2 c 0,-0.061 -0.024,-0.115 -0.035,-0.173 1.18,-0.403 2.035,-1.51 2.035,-2.827 z"
         id="path6513"
         inkscape:connector-curvature="0" />
      <path
         style="fill:#808080;stroke:#515151;stroke-opacity:1;stroke-width:0.11465216;stroke-miterlimit:4;stroke-dasharray:none"
         d="m 30.177,35 c 0,-2.757 2.243,-5 5,-5 2.757,0 5,2.243 5,5 l 0,2 2,0 0,-2 c 0,-3.86 -3.14,-7 -7,-7 -3.86,0 -7,3.14 -7,7 l 0,2 2,0 0,-2 z"
         id="path6515"
         inkscape:connector-curvature="0" />
    </g>
  </g>
</svg>
