<?xml version="1.0" encoding="UTF-8" standalone="no"?>
<!-- Generator: Adobe Illustrator 18.0.0, SVG Export Plug-In . SVG Version: 6.00 Build 0)  -->

<svg
   xmlns:dc="http://purl.org/dc/elements/1.1/"
   xmlns:cc="http://creativecommons.org/ns#"
   xmlns:rdf="http://www.w3.org/1999/02/22-rdf-syntax-ns#"
   xmlns:svg="http://www.w3.org/2000/svg"
   xmlns="http://www.w3.org/2000/svg"
   xmlns:sodipodi="http://sodipodi.sourceforge.net/DTD/sodipodi-0.dtd"
   xmlns:inkscape="http://www.inkscape.org/namespaces/inkscape"
   version="1.1"
   id="Capa_1"
   x="0px"
   y="0px"
   viewBox="0 0 42.999999 53"
   xml:space="preserve"
   inkscape:version="0.91 r13725"
   sodipodi:docname="marker_place.svg"
   inkscape:export-filename="/home/blubber/lberg_map/app/assets/images/marker_place.png"
   inkscape:export-xdpi="90"
   inkscape:export-ydpi="90"
   width="43"
   height="53"><metadata
     id="metadata45"><rdf:RDF><cc:Work
         rdf:about=""><dc:format>image/svg+xml</dc:format><dc:type
           rdf:resource="http://purl.org/dc/dcmitype/StillImage" /><dc:title /></cc:Work></rdf:RDF></metadata><defs
     id="defs43" /><sodipodi:namedview
     pagecolor="#ffffff"
     bordercolor="#666666"
     borderopacity="1"
     objecttolerance="10"
     gridtolerance="10"
     guidetolerance="10"
     inkscape:pageopacity="0"
     inkscape:pageshadow="2"
     inkscape:window-width="1920"
     inkscape:window-height="986"
     id="namedview41"
     showgrid="false"
     inkscape:zoom="4.5384615"
     inkscape:cx="-171.66552"
     inkscape:cy="17.879938"
     inkscape:window-x="0"
     inkscape:window-y="27"
     inkscape:window-maximized="1"
     inkscape:current-layer="Capa_1"
     fit-margin-top="0"
     fit-margin-left="0"
     fit-margin-right="0"
     fit-margin-bottom="0" /><g
     id="g11"
     transform="translate(-9.533014,0.6046205)" /><g
     id="g13"
     transform="translate(-9.533014,0.6046205)" /><g
     id="g15"
     transform="translate(-9.533014,0.6046205)" /><g
     id="g17"
     transform="translate(-9.533014,0.6046205)" /><g
     id="g19"
     transform="translate(-9.533014,0.6046205)" /><g
     id="g21"
     transform="translate(-9.533014,0.6046205)" /><g
     id="g23"
     transform="translate(-9.533014,0.6046205)" /><g
     id="g25"
     transform="translate(-9.533014,0.6046205)" /><g
     id="g27"
     transform="translate(-9.533014,0.6046205)" /><g
     id="g29"
     transform="translate(-9.533014,0.6046205)" /><g
     id="g31"
     transform="translate(-9.533014,0.6046205)" /><g
     id="g33"
     transform="translate(-9.533014,0.6046205)" /><g
     id="g35"
     transform="translate(-9.533014,0.6046205)" /><g
     id="g37"
     transform="translate(-9.533014,0.6046205)" /><g
     id="g39"
     transform="translate(-9.533014,0.6046205)" /><path
     inkscape:connector-curvature="0"
     style="display:inline;fill:#956bab;fill-opacity:1;stroke:#6d4880;stroke-width:1;stroke-linecap:round;stroke-miterlimit:4;stroke-dasharray:none;stroke-opacity:1"
     d="m 21.558546,0.70923996 c -8.745917,0 -16.025532,7.57234414 -16.025532,15.78869004 0,3.696356 2.081031,8.393312 3.584588,11.63727 L 21.500001,51.915364 33.823852,28.1352 c 1.503557,-3.243958 3.643134,-7.7054 3.643134,-11.63727 0,-8.2163459 -7.162524,-15.78869004 -15.90844,-15.78869004 z m 0,9.52031604 c 3.438224,0.02262 6.225793,2.823497 6.225793,6.267043 0,3.443547 -2.787569,6.204504 -6.225793,6.225794 -3.438224,-0.02262 -6.225794,-2.780917 -6.225794,-6.225794 0,-3.443546 2.78757,-6.244423 6.225794,-6.267043 z"
     id="path46" /></svg>