<?xml version="1.0" encoding="UTF-8" standalone="no"?>
<!-- Generator: Adobe Illustrator 18.0.0, SVG Export Plug-In . SVG Version: 6.00 Build 0)  -->

<svg
   xmlns:dc="http://purl.org/dc/elements/1.1/"
   xmlns:cc="http://creativecommons.org/ns#"
   xmlns:rdf="http://www.w3.org/1999/02/22-rdf-syntax-ns#"
   xmlns:svg="http://www.w3.org/2000/svg"
   xmlns="http://www.w3.org/2000/svg"
   xmlns:sodipodi="http://sodipodi.sourceforge.net/DTD/sodipodi-0.dtd"
   xmlns:inkscape="http://www.inkscape.org/namespaces/inkscape"
   version="1.1"
   id="Capa_1"
   x="0px"
   y="0px"
   viewBox="0 0 43 53"
   xml:space="preserve"
   inkscape:version="0.91 r13725"
   sodipodi:docname="marker_session_place.svg"
   inkscape:export-filename="/home/blubber/lberg_map/app/assets/images/marker_session_place.png"
   inkscape:export-xdpi="90"
   inkscape:export-ydpi="90"
   width="43"
   height="53"><metadata
     id="metadata45"><rdf:RDF><cc:Work
         rdf:about=""><dc:format>image/svg+xml</dc:format><dc:type
           rdf:resource="http://purl.org/dc/dcmitype/StillImage" /><dc:title /></cc:Work></rdf:RDF></metadata><defs
     id="defs43" /><sodipodi:namedview
     pagecolor="#ffffff"
     bordercolor="#666666"
     borderopacity="1"
     objecttolerance="10"
     gridtolerance="10"
     guidetolerance="10"
     inkscape:pageopacity="0"
     inkscape:pageshadow="2"
     inkscape:window-width="1920"
     inkscape:window-height="986"
     id="namedview41"
     showgrid="false"
     inkscape:zoom="256"
     inkscape:cx="3.5677246"
     inkscape:cy="14.292028"
     inkscape:window-x="0"
     inkscape:window-y="27"
     inkscape:window-maximized="1"
     inkscape:current-layer="layer6"
     fit-margin-top="0"
     fit-margin-left="0"
     fit-margin-right="0"
     fit-margin-bottom="0"
     showguides="true"
     inkscape:guide-bbox="true"><sodipodi:guide
       position="2.8046875,15.71875"
       orientation="1,0"
       id="guide3602" /></sodipodi:namedview><g
     id="g11"
     transform="translate(-3.9999995,0.60462058)" /><g
     id="g13"
     transform="translate(-3.9999995,0.60462058)" /><g
     id="g15"
     transform="translate(-3.9999995,0.60462058)" /><g
     id="g17"
     transform="translate(-3.9999995,0.60462058)" /><g
     id="g19"
     transform="translate(-3.9999995,0.60462058)" /><g
     id="g21"
     transform="translate(-3.9999995,0.60462058)" /><g
     id="g23"
     transform="translate(-3.9999995,0.60462058)" /><g
     id="g25"
     transform="translate(-3.9999995,0.60462058)" /><g
     id="g27"
     transform="translate(-3.9999995,0.60462058)" /><g
     id="g29"
     transform="translate(-3.9999995,0.60462058)" /><g
     id="g31"
     transform="translate(-3.9999995,0.60462058)" /><g
     id="g33"
     transform="translate(-3.9999995,0.60462058)" /><g
     id="g35"
     transform="translate(-3.9999995,0.60462058)" /><g
     id="g37"
     transform="translate(-3.9999995,0.60462058)" /><g
     id="g39"
     transform="translate(-3.9999995,0.60462058)" /><g
     inkscape:groupmode="layer"
     id="layer5"
     inkscape:label="Marker"
     transform="translate(-3.9999995,0.60462058)" /><g
     inkscape:groupmode="layer"
     id="layer6"
     inkscape:label="Lock"
     transform="translate(-3.9999995,0.60462058)"><path
       inkscape:connector-curvature="0"
       style="display:inline;fill:#956bab;fill-opacity:1;stroke:#6d4880;stroke-width:1;stroke-linecap:round;stroke-miterlimit:4;stroke-dasharray:none;stroke-opacity:1"
       d="m 25.558546,-0.02265035 c -8.745917,0 -16.025532,7.57234415 -16.025532,15.78868935 0,3.696356 2.081031,8.393312 3.584588,11.63727 L 25.500001,51.183473 37.823852,27.403309 c 1.503557,-3.243958 3.643133,-7.7054 3.643133,-11.63727 0,-8.2163452 -7.162523,-15.78868935 -15.90844,-15.78868935 z m 0,9.52031585 c 3.438224,0.02262 6.225793,2.8234965 6.225793,6.2670425 0,3.443547 -2.787569,6.204504 -6.225793,6.225794 -3.438224,-0.02262 -6.225794,-2.780917 -6.225794,-6.225794 0,-3.443546 2.78757,-6.2444225 6.225794,-6.2670425 z"
       id="path46-3" /><g
       id="g4257"
       transform="translate(2.8041259,0.31340823)"><rect
         id="rect6511"
         height="13.955255"
         width="17.444067"
         style="fill:#000000"
         y="38.044746"
         x="3.9999995" /><path
         inkscape:connector-curvature="0"
         id="path6513"
         d="m 15.338643,44.15017 c 0,-1.445241 -1.171369,-2.616611 -2.61661,-2.616611 -1.445241,0 -2.61661,1.17137 -2.61661,2.616611 0,1.148691 0.744862,2.114221 1.774934,2.465719 -0.0096,0.05059 -0.03053,0.09769 -0.03053,0.150891 l 0,1.744407 c 0,0.481456 0.390747,0.872203 0.872203,0.872203 0.481457,0 0.872204,-0.390747 0.872204,-0.872203 l 0,-1.744407 c 0,-0.0532 -0.02093,-0.100304 -0.03053,-0.150891 1.0292,-0.351498 1.774933,-1.317028 1.774933,-2.465719 z"
         style="fill:#ffffff" /><path
         inkscape:connector-curvature="0"
         id="path6515"
         d="m 8.3610164,36.300339 c 0,-2.404665 1.9563526,-4.361017 4.3610166,-4.361017 2.404665,0 4.361017,1.956352 4.361017,4.361017 l 0,1.744407 1.744407,0 0,-1.744407 c 0,-3.366705 -2.738719,-6.105423 -6.105424,-6.105423 -3.3667047,0 -6.1054234,2.738718 -6.1054234,6.105423 l 0,1.744407 1.7444068,0 0,-1.744407 z"
         style="fill:#000000" /></g></g></svg>