<?xml version="1.0" encoding="UTF-8" standalone="no"?>
<!-- Generator: Adobe Illustrator 19.0.0, SVG Export Plug-In . SVG Version: 6.00 Build 0)  -->

<svg
   xmlns:dc="http://purl.org/dc/elements/1.1/"
   xmlns:cc="http://creativecommons.org/ns#"
   xmlns:rdf="http://www.w3.org/1999/02/22-rdf-syntax-ns#"
   xmlns:svg="http://www.w3.org/2000/svg"
   xmlns="http://www.w3.org/2000/svg"
   xmlns:sodipodi="http://sodipodi.sourceforge.net/DTD/sodipodi-0.dtd"
   xmlns:inkscape="http://www.inkscape.org/namespaces/inkscape"
   version="1.1"
   id="Capa_1"
   x="0px"
   y="0px"
   viewBox="0 0 43 53"
   xml:space="preserve"
   inkscape:version="0.91 r13725"
   sodipodi:docname="marker_current_position.svg"
   width="43"
   height="53"><metadata
     id="metadata43"><rdf:RDF><cc:Work
         rdf:about=""><dc:format>image/svg+xml</dc:format><dc:type
           rdf:resource="http://purl.org/dc/dcmitype/StillImage" /><dc:title></dc:title></cc:Work></rdf:RDF></metadata><defs
     id="defs41" /><sodipodi:namedview
     pagecolor="#ffffff"
     bordercolor="#666666"
     borderopacity="1"
     objecttolerance="10"
     gridtolerance="10"
     guidetolerance="10"
     inkscape:pageopacity="0"
     inkscape:pageshadow="2"
     inkscape:window-width="1680"
     inkscape:window-height="1024"
     id="namedview39"
     showgrid="false"
     inkscape:zoom="5.5625733"
     inkscape:cx="-38.55371"
     inkscape:cy="22.320944"
     inkscape:window-x="0"
     inkscape:window-y="0"
     inkscape:window-maximized="1"
     inkscape:current-layer="layer3" /><g
     id="g9"
     transform="translate(0,-7)" /><g
     id="g11"
     transform="translate(0,-7)" /><g
     id="g13"
     transform="translate(0,-7)" /><g
     id="g15"
     transform="translate(0,-7)" /><g
     id="g17"
     transform="translate(0,-7)" /><g
     id="g19"
     transform="translate(0,-7)" /><g
     id="g21"
     transform="translate(0,-7)" /><g
     id="g23"
     transform="translate(0,-7)" /><g
     id="g25"
     transform="translate(0,-7)" /><g
     id="g27"
     transform="translate(0,-7)" /><g
     id="g29"
     transform="translate(0,-7)" /><g
     id="g31"
     transform="translate(0,-7)" /><g
     id="g33"
     transform="translate(0,-7)" /><g
     id="g35"
     transform="translate(0,-7)" /><g
     id="g37"
     transform="translate(0,-7)" /><g
     inkscape:groupmode="layer"
     id="layer1"
     inkscape:label="Stick"
     transform="translate(0,-7)" /><g
     inkscape:groupmode="layer"
     id="layer2"
     inkscape:label="Flag1"
     style="display:inline"
     transform="translate(0,-7)" /><g
     inkscape:groupmode="layer"
     id="layer3"
     inkscape:label="Flag2"
     style="display:inline"
     transform="translate(0,-7)"><g
       id="g4179"
       transform="matrix(0.88308758,0,0,0.88308758,-4.9926274,7.0147457)"><path
         inkscape:connector-curvature="0"
         id="path5"
         d="M 9,0 C 8.448,0 8,0.447 8,1 l 0,3 0,55 c 0,0.553 0.448,1 1,1 0.552,0 1,-0.447 1,-1 L 10,4 10,1 C 10,0.447 9.552,0 9,0 Z"
         style="fill:#1e434e;fill-opacity:1" /><path
         inkscape:connector-curvature="0"
         id="path3"
         d="m 33,4.074 c -8.167,4.333 -23,0 -23,0 l 0,30 c 0,0 14.833,4.333 23,0 8.167,-4.333 19,0 19,0 l 0,-30 c 0,0 -10.833,-4.333 -19,0 z"
         style="display:inline;fill:#c37b63;fill-opacity:1" /><path
         inkscape:connector-curvature="0"
         id="path7"
         d="M 36,2.879 C 34.978,3.171 33.97,3.56 33,4.075 29.901,5.719 25.844,6.114 22,5.973 l 0,30 c 3.844,0.141 7.901,-0.254 11,-1.898 0.97,-0.515 1.978,-0.904 3,-1.196 l 0,-30 z"
         style="fill:#a2583f;fill-opacity:1" /></g></g></svg>